<svg width="32" height="32" viewBox="0 0 32 32" fill="none" xmlns="http://www.w3.org/2000/svg" role="img" aria-label="CertManager">
  <path d="M16 2.5L26.5 6.4C27.1 6.6 27.5 7.2 27.5 7.8V15.6C27.5 22.4 22.7 27.6 16.6 29.7C16.2 29.8 15.8 29.8 15.4 29.7C9.3 27.6 4.5 22.4 4.5 15.6V7.8C4.5 7.2 4.9 6.6 5.5 6.4L16 2.5Z" fill="#dc2626"/>
  <path d="M16 2.5L26.5 6.4C27.1 6.6 27.5 7.2 27.5 7.8V15.6C27.5 22.4 22.7 27.6 16.6 29.7C16.2 29.8 15.8 29.8 15.4 29.7C9.3 27.6 4.5 22.4 4.5 15.6V7.8C4.5 7.2 4.9 6.6 5.5 6.4L16 2.5Z" fill="url(#fg)" fill-opacity="0.18"/>
  <path d="M10.5 16.2L14.3 20L21.7 12.2" stroke="white" stroke-width="2.6" stroke-linecap="round" stroke-linejoin="round"/>
  <defs>
    <linearGradient id="fg" x1="16" y1="2.5" x2="16" y2="29.8" gradientUnits="userSpaceOnUse">
      <stop stop-color="white"/>
      <stop offset="1" stop-color="white" stop-opacity="0"/>
    </linearGradient>
  </defs>
</svg>
